<svg width="24" height="162" viewBox="0 0 24 162" fill="none" xmlns="http://www.w3.org/2000/svg">
<path d="M23.1486 5.32788L18.8208 1L12.0002 7.82176L5.17846 1L0.850586 5.32788L7.67233 12.1496L0.850586 18.9702L5.17846 23.298L12.0002 16.4775L18.8208 23.298L23.1486 18.9702L16.3281 12.1496L23.1486 5.32788Z" stroke="white" stroke-miterlimit="10"/>
<path d="M23.1486 39.6257L18.8208 35.2979L12.0002 42.1196L5.17846 35.2979L0.850586 39.6257L7.67233 46.4475L0.850586 53.268L5.17846 57.5959L12.0002 50.7753L18.8208 57.5959L23.1486 53.268L16.3281 46.4475L23.1486 39.6257Z" stroke="white" stroke-miterlimit="10"/>
<path d="M23.1486 73.9241L18.8208 69.5962L12.0002 76.418L5.17846 69.5962L0.850586 73.9241L7.67233 80.7458L0.850586 87.5664L5.17846 91.8942L12.0002 85.0737L18.8208 91.8942L23.1486 87.5664L16.3281 80.7458L23.1486 73.9241Z" stroke="white" stroke-miterlimit="10"/>
<path d="M23.1486 108.222L18.8208 103.894L12.0002 110.715L5.17846 103.894L0.850586 108.222L7.67233 115.042L0.850586 121.864L5.17846 126.192L12.0002 119.37L18.8208 126.192L23.1486 121.864L16.3281 115.042L23.1486 108.222Z" stroke="white" stroke-miterlimit="10"/>
<path d="M23.1486 142.52L18.8208 138.192L12.0002 145.012L5.17846 138.192L0.850586 142.52L7.67233 149.342L0.850586 156.162L5.17846 160.49L12.0002 153.669L18.8208 160.49L23.1486 156.162L16.3281 149.342L23.1486 142.52Z" stroke="white" stroke-miterlimit="10"/>
</svg>
