<svg width="24" height="25" viewBox="0 0 24 25" fill="none" xmlns="http://www.w3.org/2000/svg">
<path d="M22.6293 8.11056C22.6173 7.21079 22.4489 6.31997 22.1315 5.47795C21.8563 4.7677 21.436 4.12268 20.8974 3.58408C20.3588 3.04547 19.7138 2.62515 19.0035 2.34994C18.1723 2.03792 17.2942 1.86921 16.4065 1.85098C15.2637 1.7999 14.9013 1.78564 12.0003 1.78564C9.09916 1.78564 8.72731 1.78564 7.59277 1.85098C6.70552 1.86934 5.82782 2.03806 4.99699 2.34994C4.28664 2.62495 3.64151 3.04522 3.10288 3.58384C2.56426 4.12247 2.144 4.76759 1.86899 5.47795C1.55634 6.30852 1.38799 7.18642 1.37122 8.07373C1.32013 9.21777 1.30469 9.58011 1.30469 12.4812C1.30469 15.3823 1.30469 15.753 1.37122 16.8887C1.38904 17.7773 1.55654 18.6541 1.86899 19.4868C2.14446 20.197 2.56503 20.8419 3.10384 21.3802C3.64264 21.9186 4.28783 22.3387 4.99818 22.6137C5.82673 22.9382 6.70459 23.119 7.59396 23.1483C8.738 23.1993 9.10034 23.2148 12.0014 23.2148C14.9025 23.2148 15.2744 23.2148 16.4089 23.1483C17.2965 23.1308 18.1747 22.9625 19.0059 22.6505C19.7159 22.375 20.3608 21.9545 20.8994 21.416C21.4379 20.8774 21.8584 20.2325 22.1339 19.5225C22.4463 18.6909 22.6138 17.8141 22.6317 16.9243C22.6827 15.7815 22.6982 15.4191 22.6982 12.5168C22.6958 9.61575 22.6958 9.24747 22.6293 8.11056ZM11.9931 17.9674C8.95897 17.9674 6.501 15.5094 6.501 12.4753C6.501 9.44112 8.95897 6.98314 11.9931 6.98314C13.4497 6.98314 14.8467 7.56178 15.8766 8.59175C16.9066 9.62172 17.4852 11.0187 17.4852 12.4753C17.4852 13.9319 16.9066 15.3288 15.8766 16.3588C14.8467 17.3888 13.4497 17.9674 11.9931 17.9674ZM17.7038 8.06066C17.5356 8.06082 17.369 8.0278 17.2136 7.96349C17.0581 7.89919 16.9169 7.80486 16.7979 7.68591C16.679 7.56696 16.5846 7.42572 16.5203 7.27027C16.456 7.11482 16.423 6.94822 16.4232 6.78C16.4232 6.6119 16.4563 6.44544 16.5206 6.29013C16.5849 6.13483 16.6792 5.99372 16.7981 5.87485C16.917 5.75598 17.0581 5.6617 17.2134 5.59737C17.3687 5.53304 17.5351 5.49993 17.7032 5.49993C17.8713 5.49993 18.0378 5.53304 18.1931 5.59737C18.3484 5.6617 18.4895 5.75598 18.6084 5.87485C18.7273 5.99372 18.8215 6.13483 18.8859 6.29013C18.9502 6.44544 18.9833 6.6119 18.9833 6.78C18.9833 7.48804 18.4107 8.06066 17.7038 8.06066Z" fill="#999EAD"/>
<path d="M11.9931 16.0428C13.9634 16.0428 15.5607 14.4456 15.5607 12.4753C15.5607 10.505 13.9634 8.9077 11.9931 8.9077C10.0228 8.9077 8.42556 10.505 8.42556 12.4753C8.42556 14.4456 10.0228 16.0428 11.9931 16.0428Z" fill="#999EAD"/>
</svg>
