<svg width="80" height="24" viewBox="0 0 80 24" fill="none" xmlns="http://www.w3.org/2000/svg">
<mask id="mask0_4_1456" style="mask-type:luminance" maskUnits="userSpaceOnUse" x="27" y="0" width="24" height="24">
<path d="M27.0042 0H50.8115V23.8026H27.0042V0Z" fill="white"/>
</mask>
<g mask="url(#mask0_4_1456)">
<path fill-rule="evenodd" clip-rule="evenodd" d="M48.8271 11.9091C48.8271 17.3599 44.3514 21.811 38.8995 21.811C33.4476 21.811 28.9956 17.3599 28.9956 11.9091C28.9956 6.43449 33.4476 1.9834 38.8995 1.9834C44.3514 1.9834 48.8271 6.45829 48.8271 11.9091ZM36.3283 4.36366C35.7331 5.55379 35.2331 6.64871 34.9475 7.93405H32.0668C32.9476 6.24407 34.5427 5.05394 36.3283 4.36366ZM40.7922 7.94198H37.0306C37.4115 6.44241 38.1257 5.15707 38.9114 3.96695C39.697 5.15707 40.3874 6.53762 40.7922 7.94198ZM43.1769 13.8926C43.1769 13.2024 43.2721 12.5835 43.2721 11.8932C43.2721 11.2029 43.2721 10.6079 43.1769 9.91759H46.5337C46.748 10.5127 46.8432 11.2029 46.8432 11.8932C46.8432 12.5835 46.748 13.2976 46.5337 13.8926H43.1769ZM41.4905 19.4386C42.0857 18.2485 42.5856 17.1536 42.8713 15.8682H45.752C44.8473 17.5582 43.2761 18.7484 41.4905 19.4386ZM41.4905 4.36366C43.2761 5.05394 44.7521 6.24407 45.752 7.93405H42.8713C42.5856 6.64871 42.0857 5.55379 41.4905 4.36366ZM37.0306 15.8682H40.7922C40.3874 17.344 39.697 18.6532 38.9114 19.8433C38.1019 18.6532 37.4115 17.2488 37.0306 15.8682ZM36.3164 11.8932C36.3164 11.2029 36.4354 10.6079 36.5306 9.91759H41.1969C41.2921 10.6079 41.3873 11.2029 41.3873 11.8932C41.3873 12.5835 41.2921 13.1786 41.1969 13.8926H36.6259C36.5306 13.2024 36.3164 12.5835 36.3164 11.8932ZM32.0668 15.8682H34.9475C35.2331 17.1536 35.7331 18.3437 36.3283 19.4386C34.5427 18.7484 32.9476 17.5582 32.0668 15.8682ZM31.1621 13.8926C30.9716 13.2976 30.8764 12.5835 30.8764 11.8932C30.8764 11.2029 30.9716 10.5127 31.1621 9.91759H34.5427C34.5427 10.6079 34.4475 11.2029 34.4475 11.8932C34.4475 12.5835 34.4475 13.1786 34.5427 13.8926H31.1621Z" fill="white"/>
</g>
<path d="M70.5005 3.5L61.4072 20H79.5938L70.5005 3.5Z" fill="white"/>
<rect width="17" height="17" transform="matrix(-1 0 0 1 17 4)" fill="white"/>
</svg>
